<?xml version="1.0" encoding="UTF-8" standalone="no"?>
<!DOCTYPE svg PUBLIC "-//W3C//DTD SVG 1.1//EN" "http://www.w3.org/Graphics/SVG/1.1/DTD/svg11.dtd">
<svg width="100%" height="100%" viewBox="0 0 832 832" version="1.1" xmlns="http://www.w3.org/2000/svg" xmlns:xlink="http://www.w3.org/1999/xlink" xml:space="preserve" xmlns:serif="http://www.serif.com/" style="fill-rule:evenodd;clip-rule:evenodd;stroke-linejoin:round;stroke-miterlimit:2;">
    <g transform="matrix(0.93459,-0.93459,1.0969,1.0969,-587.026,415.24)">
        <path d="M797.918,344.837C797.918,286.776 742.594,239.639 674.451,239.639L397.963,239.639C329.819,239.639 274.495,286.776 274.495,344.837L274.495,352.651C274.495,410.712 329.819,457.849 397.963,457.849L674.451,457.849C742.594,457.849 797.918,410.712 797.918,352.651L797.918,344.837Z" style="fill:rgb(59,59,59);"/>
    </g>
    <g transform="matrix(0.93459,-0.93459,1.0969,1.0969,-348.379,653.888)">
        <path d="M797.918,344.837C797.918,286.776 742.594,239.639 674.451,239.639L397.963,239.639C329.819,239.639 274.495,286.776 274.495,344.837L274.495,352.651C274.495,410.712 329.819,457.849 397.963,457.849L674.451,457.849C742.594,457.849 797.918,410.712 797.918,352.651L797.918,344.837Z" style="fill:rgb(59,59,59);"/>
    </g>
</svg>
